<svg viewBox="0 0 500 484" xmlns="http://www.w3.org/2000/svg" fill="#6B3838">
  <path d="M160,483.310229 C66.398798,447.179352 0,356.343811 0,250 C0,143.656189 66.398798,52.8206479 160,16.6897713 L160,99.8858793 C109.074139,130.483866 75,186.262712 75,250 C75,313.737288 109.074139,369.516134 160,400.114121 L160,483.310247 Z M340,16.6897713 C433.601202,52.8206479 500,143.656189 500,250 C500,356.343811 433.601202,447.179352 340,483.310229 L340,400.114121 C390.925861,369.516134 425,313.737288 425,250 C425,186.262712 390.925861,130.483866 340,99.8858793 L340,16.6897713 Z"/>
  <g transform="translate(250, 240.5) scale(1, -1) translate(-250, -240.5) translate(205, 0)">
    <path d="M0,200 L37.4609375,173.8125 L44,88.03125 L49.8046875,115.042969 L52.78125,173.8125 L90,200 C90,304.373032 90,368.962876 90,393.769531 C90,395.717273 81.594401,387.803211 64.7832031,370.027344 C81.594401,395.368448 90,408.950479 90,410.773438 C90,448.72309 90,470.802726 90,477.012344 C79.8776042,479.653854 64.8776042,480.974609 45,480.974609 C25.1223958,480.974609 10.1223958,479.653854 0,477.012344 L0,200 Z M80.9863281,371.519531 L80.9863281,207.367188 L45,182.818359 L45,473 L81.9863281,469.769531 L81.9863281,416.162109 L45,359.232422 L45,345.056692 L80.9863281,371.519531 Z"/>
    <path d="M44.8280269,57 C30.3292458,45.8926645 22.3865701,34.8353402 21,23.8280269 C21,10.668171 31.668171,0 44.8280269,0 C57.9878828,0 68.6560538,10.668171 68.6560538,23.8280269 C66.5343491,35.7673064 58.5916735,46.8246308 44.8280269,57 Z M49.1386719,45.9804688 L63.9511719,19.7148438 L49.1386719,6.79101562 L49.1386719,45.9804688 Z"/>
  </g>
</svg>
