<?xml version="1.0" encoding="UTF-8"?>
<svg width="194px" height="47px" viewBox="0 0 194 47" version="1.1" xmlns="http://www.w3.org/2000/svg" xmlns:xlink="http://www.w3.org/1999/xlink">
    <!-- Generator: Sketch 51.3 (57544) - http://www.bohemiancoding.com/sketch -->
    <title>Logo</title>
    <desc>Created with Sketch.</desc>
    <defs>
        <polygon id="path-1" points="0.00312903226 0.474252596 12.437121 0.474252596 12.437121 12.2923077 0.00312903226 12.2923077"></polygon>
        <polygon id="path-3" points="0.781632258 0.474252596 13.2156242 0.474252596 13.2156242 12.2923077 0.781632258 12.2923077"></polygon>
        <polygon id="path-5" points="0.17608629 0.491845962 10.1858605 0.491845962 10.1858605 12.2923077 0.17608629 12.2923077"></polygon>
        <polygon id="path-7" points="0 0.750983173 33.3201258 0.750983173 33.3201258 45.3874255 0 45.3874255"></polygon>
    </defs>
    <g id="Home-Page-RD03" stroke="none" stroke-width="1" fill="none" fill-rule="evenodd">
        <g id="Evan's-Comp-Home--dropdown" transform="translate(-46.000000, -27.000000)">
            <g id="top-nav" transform="translate(0.000000, -82.000000)">
                <g id="Logo" transform="translate(46.000000, 109.000000)">
                    <polygon id="Fill-1" fill="#058FDB" points="60 1 81 1 81 7.0866249 67.3862446 7.0866249 67.3862446 11.7469354 80.6995876 11.7469354 80.6995876 17.8755108 67.3862446 17.8755108 67.3862446 22.9133751 81 22.9133751 81 29 60 29"></polygon>
                    <polygon id="Fill-2" fill="#058FDB" points="83 1 91.4072577 1 98.4788487 21.1918823 105.592742 1 114 1 103.135272 29 93.8216416 29"></polygon>
                    <path d="M118.469209,18.6728501 L126.531575,18.6728501 L122.478458,7.2962055 L118.469209,18.6728501 Z M128.471963,24.7593092 L116.528037,24.7593092 L115.062366,29 L107,29 L117.822151,1 L127.135547,1 L138,29 L129.937634,29 L128.471963,24.7593092 Z" id="Fill-3" fill="#058FDB"></path>
                    <polygon id="Fill-4" fill="#058FDB" points="147.212613 12.0822369 147.212613 29 140 29 140 1 147.422149 1 158.74548 17.119964 158.74548 1 166 1 166 29 159.03883 29"></polygon>
                    <g id="Group-35">
                        <path d="M173.0189,19.5593663 C175.085626,21.5891337 178.271763,23.2800942 182.190094,23.2800942 C184.730085,23.2800942 186.279739,22.2229558 186.279739,20.8700337 C186.279739,19.2635827 184.428134,18.6289923 181.371852,17.9944019 C176.635279,17.0640279 170.00486,15.880125 170.00486,9.20002404 C170.00486,4.46364423 174.095287,0.361854808 181.457118,0.361854808 C186.064618,0.361854808 190.068215,1.71477692 193.125279,4.294625 L189.077876,9.49580769 C186.666956,7.55055 183.524626,6.57792115 180.983852,6.57792115 C178.529908,6.57792115 177.582594,7.55055 177.582594,8.77670769 C177.582594,10.2571625 179.34815,10.7642202 182.533505,11.3557875 C187.270077,12.3284163 193.814448,13.6821067 193.814448,20.066424 C193.814448,25.7331779 189.551924,29.4961606 181.845118,29.4961606 C176.03294,29.4961606 171.985537,27.7199221 169.100569,25.0140779 L173.0189,19.5593663 Z" id="Fill-5" fill="#058FDB"></path>
                        <path d="M59.3737782,40.1870879 C59.3737782,36.6591956 62.0944718,34.2783292 65.5817782,34.2783292 C68.4769153,34.2783292 69.976504,35.8371475 70.7431169,37.3444917 L68.1624476,38.5429917 C67.7791411,37.6356658 66.7848911,36.8819937 65.5817782,36.8819937 C63.7677218,36.8819937 62.4245847,38.3201937 62.4245847,40.1870879 C62.4245847,42.0539821 63.7677218,43.4929504 65.5817782,43.4929504 C66.7848911,43.4929504 67.7791411,42.7392783 68.1624476,41.831184 L70.7431169,43.0304523 C69.9937137,44.5032244 68.4769153,46.0958465 65.5817782,46.0958465 C62.0944718,46.0958465 59.3737782,43.6980783 59.3737782,40.1870879" id="Fill-7" fill="#058FDB"></path>
                        <g id="Group-11" transform="translate(72.750000, 33.803846)">
                            <mask id="mask-2" fill="white">
                                <use xlink:href="#path-1"></use>
                            </mask>
                            <g id="Clip-10"></g>
                            <path d="M6.22833871,3.07791702 C4.29225,3.07791702 3.05393548,4.51688529 3.05393548,6.38301125 C3.05393548,8.23300356 4.29225,9.68887375 6.22833871,9.68887375 C8.14643548,9.68887375 9.38475,8.23300356 9.38475,6.38301125 C9.38475,4.51688529 8.14643548,3.07791702 6.22833871,3.07791702 M6.22833871,0.474252596 C9.78604839,0.474252596 12.437121,2.90659298 12.437121,6.38301125 C12.437121,9.86019779 9.78604839,12.2925382 6.22833871,12.2925382 C2.67062903,12.2925382 0.00312903226,9.86019779 0.00312903226,6.38301125 C0.00312903226,2.90659298 2.67062903,0.474252596 6.22833871,0.474252596" id="Fill-9" fill="#058FDB" mask="url(#mask-2)"></path>
                        </g>
                        <polygon id="Fill-12" fill="#058FDB" points="98.2178194 38.1835186 95.270271 45.8907955 93.9451258 45.8907955 91.0155694 38.1835186 91.0155694 45.8907955 88.0163919 45.8907955 88.0163919 34.466632 92.1842629 34.466632 94.6084806 40.9408368 97.0499081 34.466632 101.217779 34.466632 101.217779 45.8907955 98.2178194 45.8907955"></polygon>
                        <path d="M110.047126,36.9500623 L107.622908,36.9500623 L107.622908,39.5191546 L110.047126,39.5191546 C110.84894,39.5191546 111.441892,39.0228527 111.441892,38.2515104 C111.441892,37.4640344 110.84894,36.9500623 110.047126,36.9500623 Z M104.623731,34.4670162 L110.448424,34.4670162 C113.064295,34.4670162 114.494263,36.1971585 114.494263,38.2691806 C114.494263,40.3243008 113.064295,42.019871 110.448424,42.019871 L107.622908,42.019871 L107.622908,45.8904113 L104.623731,45.8904113 L104.623731,34.4670162 Z" id="Fill-14" fill="#058FDB"></path>
                        <g id="Group-18" transform="translate(115.774194, 33.803846)">
                            <mask id="mask-4" fill="white">
                                <use xlink:href="#path-3"></use>
                            </mask>
                            <g id="Clip-17"></g>
                            <path d="M7.00684194,3.07791702 C5.07075323,3.07791702 3.83243871,4.51688529 3.83243871,6.38301125 C3.83243871,8.23300356 5.07075323,9.68887375 7.00684194,9.68887375 C8.92493871,9.68887375 10.1632532,8.23300356 10.1632532,6.38301125 C10.1632532,4.51688529 8.92493871,3.07791702 7.00684194,3.07791702 M7.00684194,0.474252596 C10.5645516,0.474252596 13.2156242,2.90659298 13.2156242,6.38301125 C13.2156242,9.86019779 10.5645516,12.2925382 7.00684194,12.2925382 C3.44913226,12.2925382 0.781632258,9.86019779 0.781632258,6.38301125 C0.781632258,2.90659298 3.44913226,0.474252596 7.00684194,0.474252596" id="Fill-16" fill="#058FDB" mask="url(#mask-4)"></path>
                        </g>
                        <polygon id="Fill-19" fill="#058FDB" points="134.81811 38.9885111 134.81811 45.8906418 131.818932 45.8906418 131.818932 34.4664784 134.90494 34.4664784 139.614134 41.0436312 139.614134 34.4664784 142.630521 34.4664784 142.630521 45.8906418 139.736166 45.8906418"></polygon>
                        <polygon id="Fill-21" fill="#058FDB" points="146.036394 34.4667088 154.56379 34.4667088 154.56379 36.949755 149.035572 36.949755 149.035572 38.8512213 154.441757 38.8512213 154.441757 41.3519377 149.035572 41.3519377 149.035572 43.4070579 154.56379 43.4070579 154.56379 45.8908723 146.036394 45.8908723"></polygon>
                        <polygon id="Fill-23" fill="#058FDB" points="160.618154 38.9885111 160.618154 45.8906418 157.618977 45.8906418 157.618977 34.4664784 160.704985 34.4664784 165.414178 41.0436312 165.414178 34.4664784 168.430565 34.4664784 168.430565 45.8906418 165.53621 45.8906418"></polygon>
                        <polygon id="Fill-25" fill="#058FDB" points="174.433692 37.0359548 171.172458 37.0359548 171.172458 34.4668625 180.676894 34.4668625 180.676894 37.0359548 177.433652 37.0359548 177.433652 45.8902577 174.433692 45.8902577"></polygon>
                        <g id="Group-29" transform="translate(182.266129, 33.803846)">
                            <mask id="mask-6" fill="white">
                                <use xlink:href="#path-5"></use>
                            </mask>
                            <g id="Clip-28"></g>
                            <path d="M1.76250565,8.26749885 C2.59952177,9.08954692 3.89024758,9.77407481 5.47744919,9.77407481 C6.50611855,9.77407481 7.13348952,9.34614885 7.13348952,8.79837288 C7.13348952,8.14764885 6.38408629,7.89027865 5.14577177,7.63367673 C3.227675,7.25722481 0.541400806,6.77782481 0.541400806,4.07121231 C0.541400806,2.15284404 2.19900565,0.491845962 5.18097339,0.491845962 C7.04665887,0.491845962 8.66827984,1.03962192 9.90659435,2.08446808 L8.26698145,4.19106231 C7.29072339,3.40281808 6.01720726,3.00946423 4.98932016,3.00946423 C3.99507016,3.00946423 3.61098145,3.40281808 3.61098145,3.89988827 C3.61098145,4.49913827 4.32596532,4.70503442 5.61669113,4.94473442 C7.5347879,5.33808827 10.1858605,5.8866325 10.1858605,8.473395 C10.1858605,10.7674469 8.45941694,12.2924613 5.337425,12.2924613 C2.98361048,12.2924613 1.34399758,11.5725931 0.17608629,10.4762729 L1.76250565,8.26749885 Z" id="Fill-27" fill="#058FDB" mask="url(#mask-6)"></path>
                        </g>
                        <g id="Group-32">
                            <mask id="mask-8" fill="white">
                                <use xlink:href="#path-7"></use>
                            </mask>
                            <g id="Clip-31"></g>
                            <polygon id="Fill-30" fill="#058FDB" mask="url(#mask-8)" points="33.3201258 10.3543486 33.3201258 0.750983173 11.7305855 0.750983173 2.33723065 0.750983173 -0.000156451613 0.750983173 -0.000156451613 45.3874255 2.33723065 45.3874255 11.7305855 45.3874255 33.3201258 45.3874255 33.3201258 35.7840601 11.7305855 35.7840601 11.7305855 10.3543486"></polygon>
                        </g>
                        <polygon id="Fill-33" fill="#058FDB" points="46.3778903 23.0694348 33.2750677 10.2009252 33.2750677 18.2677521 20.2833258 18.2677521 20.2833258 27.8711175 33.2750677 27.8711175 33.2750677 35.9379444"></polygon>
                    </g>
                </g>
            </g>
        </g>
    </g>
</svg>